<?xml version="1.0" encoding="utf-8" ?>
<svg xmlns="http://www.w3.org/2000/svg" xmlns:xlink="http://www.w3.org/1999/xlink" width="925" height="462">
	<path fill="#19ACC5" transform="matrix(0.45166 0 0 0.451172 0 3.05176e-05)" d="M1732.47 338.387C1729.55 334.5 1722.5 335.011 1719.01 326.563C1717.25 322.323 1717.12 317.517 1718.99 313.299C1721.04 308.7 1724.91 305.263 1729.59 303.468C1734.46 301.598 1739.86 301.701 1744.57 304.001C1748.66 305.997 1752.11 309.576 1753.52 313.947C1755.04 318.67 1754.46 323.75 1752.18 328.127C1749.06 334.129 1744.07 336.253 1737.94 338.273C1739.61 344.702 1740.44 373.774 1737.64 379.103C1748.3 380.069 1781.57 383.92 1788.51 392.032C1791.55 392.015 1793.05 391.862 1795.25 389.675C1799.17 385.774 1806.35 376.767 1806.34 371.125L1803.66 369.09C1799.48 363.341 1796.51 357.517 1797.1 350.212C1797.71 342.717 1802.33 337.57 1807.8 332.898C1814.78 329.476 1821.53 327.699 1829.16 330.233C1835.17 332.273 1840.09 336.66 1842.8 342.393C1845.63 348.323 1845.93 355.144 1843.63 361.299C1841.49 366.952 1837.11 371.171 1831.59 373.527C1824.66 376.487 1818.57 375.743 1811.37 374.592C1809.64 381.356 1803.42 391.344 1797.27 394.914C1796.72 395.234 1796.17 395.507 1795.59 395.781C1802.97 398.785 1809.78 403.24 1815.83 408.407C1820.1 412.051 1835.31 429.372 1837.95 430.293C1847.09 425.388 1864 405.598 1871.54 397.237L1871.64 396.798C1868.98 390.289 1869.43 384.85 1869.56 378.03C1872.65 374.445 1875.37 371.134 1879.6 368.816C1885.07 367.15 1889.78 366.745 1895.03 369.448C1899.99 371.997 1904.53 376.683 1906.2 382.072C1907.43 386.027 1906.97 389.624 1905.01 393.236C1903.8 395.456 1902.38 397.138 1899.97 398.102C1898.84 400.679 1897.59 401.911 1894.89 402.957C1889.83 404.918 1883.99 404.39 1878.91 402.901C1878.07 402.637 1877.41 402.141 1876.59 402.548C1865.35 408.162 1852.49 430.982 1840.93 434.012C1841 434.213 1841.06 434.415 1841.14 434.615C1843.06 439.817 1846.38 444.558 1848.94 449.477C1856.31 463.658 1862.8 478.932 1863.81 495.057C1864.05 498.942 1864.49 503.282 1862.91 506.934C1863.46 508.754 1863.97 510.178 1863.66 512.082C1864.93 518.845 1863.41 536.041 1859.64 541.855C1859.12 542.661 1858.47 543.336 1857.77 543.978C1859.45 548.776 1854.31 558.523 1852.13 563.037C1849.87 567.707 1845.5 577.468 1840.79 579.839C1841.92 588.914 1855.82 592.132 1856.72 599.154C1862.27 601.731 1870.81 609.473 1873.88 614.69C1880.17 611.038 1885.31 608.699 1892.77 610.56C1897.04 611.581 1900.7 614.317 1902.9 618.123C1905.48 622.647 1906 627.931 1904.62 632.926C1903.41 637.403 1900.43 641.192 1896.36 643.411C1891 646.314 1884.56 645.512 1878.93 643.821C1876.15 642.049 1873.6 640.302 1871.69 637.559C1868.1 632.421 1868.55 626.521 1869.66 620.673L1869.84 619.419C1867.31 614.03 1857.59 606.796 1852.74 603.034C1848.95 597.818 1840.87 590.274 1835.07 587.498C1832.33 597.129 1808.2 612.558 1799.76 617.235C1798.1 618.158 1796.37 618.874 1794.58 619.489C1799.18 623.334 1806.59 640.144 1812.15 639.524C1812.76 639.456 1813.36 639.217 1813.93 639.021C1820.76 637.568 1828.13 638.075 1834.09 642.057C1839.09 645.394 1842.62 651.068 1843.73 656.939C1845.03 663.441 1843.59 670.189 1839.76 675.598C1836.38 680.323 1831.23 683.471 1825.48 684.316C1818.73 685.348 1811.99 683.797 1805.97 680.753C1801.63 675.311 1796.88 669.496 1795.58 662.394C1794.87 658.452 1799.93 650.42 1802.27 647.215C1802.99 646.237 1803.67 645.238 1804.37 644.251C1800.98 636.911 1795 628.052 1789.1 622.569C1786.05 624.384 1783 625.092 1779.57 625.887C1779.22 626.339 1779.17 626.455 1778.62 626.816C1775.31 628.973 1768.58 630.385 1764.65 631.32C1736.19 638.103 1709.38 632.778 1682.12 624.087C1682.09 624.443 1682.07 625.047 1681.96 625.422C1680.33 630.914 1669.71 642.658 1664.59 645.475C1668.56 648.641 1671.23 653.155 1672.09 658.158C1673.05 663.723 1671.42 669.266 1668.18 673.82C1664.34 679.21 1658.52 682.86 1652 683.972C1646.42 684.878 1640.72 683.731 1636.16 680.328C1631.04 676.503 1627.48 670.017 1626.75 663.694C1626.05 657.68 1627.92 651.715 1631.7 647.011C1635.38 642.427 1640.52 638.973 1646.46 638.395C1650.87 637.966 1657.31 639.58 1660.76 642.362C1665.53 638.511 1675.39 627.205 1677.05 621.351C1673.36 617.38 1664.58 613.668 1659.83 610.248C1650.97 603.862 1643.06 595.035 1633.85 589.495C1633.8 589.695 1633.78 589.902 1633.71 590.096C1632.23 594.185 1609.47 619.641 1605.87 621.132C1605.33 624.16 1605.13 624.024 1602.6 625.838L1602.61 629.162L1603.33 632.521L1600.39 634.836L1599.66 634.544L1600.02 636.023C1592.84 638.864 1489.65 636.895 1472.46 637.063L550.145 638.98L337.535 639.001L268.467 638.941C256.861 638.927 244.859 639.514 233.31 638.767C223.951 638.961 214.178 639.622 204.875 638.535C185.612 636.284 166.805 627.66 154.607 612.248C146.661 602.209 140.679 589.799 137.996 577.272C133.697 557.193 136.262 527.319 136.211 506.293C136.158 484.113 134.17 459.936 136.861 437.943C139.034 420.179 146.889 402.054 161.226 390.821C161.624 390.366 162.043 389.929 162.48 389.511C170.75 381.521 187.891 372.823 199.551 372.963C211.729 370.283 226.741 371.919 239.294 371.934L312.254 372.035L600.104 372.069L1249.87 372.056L1480.26 372.939C1515.26 373.086 1551.03 371.06 1585.92 372.929C1590.42 373.17 1594.98 373.38 1598.88 375.863C1610.42 383.213 1628.11 418.169 1637.92 422.246C1644.05 419.208 1650.59 412.014 1656.34 407.708C1661.84 403.588 1669.05 400.212 1673.87 395.536C1672.57 389.214 1663.83 378.483 1659.82 373.29C1656.12 374.404 1652.61 375.226 1648.71 375.047C1642.7 374.772 1636.43 372.465 1632.36 367.91C1627.94 362.966 1626.17 355.699 1626.59 349.193C1626.97 343.449 1629.46 338.253 1633.91 334.557C1638.91 330.404 1645.77 328.522 1652.2 329.271C1658.38 329.991 1664.32 332.985 1668.18 337.934C1672.19 343.076 1673.18 349.322 1672.31 355.655C1671.45 361.935 1668.97 366.429 1663.96 370.295C1668.43 374.584 1678.18 386.787 1678.46 392.896C1682.98 391.73 1687.52 389.172 1691.93 387.508C1705.38 382.432 1717.38 380.16 1731.75 379.795C1735.21 373.47 1733.34 346.642 1732.47 338.387ZM161.309 573.389C167.474 588.561 177.026 603.099 192.706 609.753C199.482 612.628 206.627 613.663 213.921 613.982C253.468 615.714 293.761 614.064 333.381 614.072L573.546 614.097L1290 614.234L1395.08 614.2C1412.47 614.2 1430.11 613.606 1447.48 614.238C1453.13 614.444 1456.26 619.453 1461.94 619.775C1490.55 621.398 1519.91 620.202 1548.6 620.24C1564.21 620.26 1583.91 621.915 1598.94 620.045L1601.14 618.162L1604.99 617.675L1606.28 618.836L1605.87 621.132C1609.47 619.641 1632.23 594.185 1633.71 590.096C1633.78 589.902 1633.8 589.695 1633.85 589.495C1643.06 595.035 1650.97 603.862 1659.83 610.248C1664.58 613.668 1673.36 617.38 1677.05 621.351C1675.39 627.205 1665.53 638.511 1660.76 642.362C1657.31 639.58 1650.87 637.966 1646.46 638.395C1640.52 638.973 1635.38 642.427 1631.7 647.011C1627.92 651.715 1626.05 657.68 1626.75 663.694C1627.48 670.017 1631.04 676.503 1636.16 680.328C1640.72 683.731 1646.42 684.878 1652 683.972C1658.52 682.86 1664.34 679.21 1668.18 673.82C1671.42 669.266 1673.05 663.723 1672.09 658.158C1671.23 653.155 1668.56 648.641 1664.59 645.475C1669.71 642.658 1680.33 630.914 1681.96 625.422C1682.07 625.047 1682.09 624.443 1682.12 624.087C1709.38 632.778 1736.19 638.103 1764.65 631.32C1768.58 630.385 1775.31 628.973 1778.62 626.816C1779.17 626.455 1779.22 626.339 1779.57 625.887C1783 625.092 1786.05 624.384 1789.1 622.569C1795 628.052 1800.98 636.911 1804.37 644.251C1803.67 645.238 1802.99 646.237 1802.27 647.215C1799.93 650.42 1794.87 658.452 1795.58 662.394C1796.88 669.496 1801.63 675.311 1805.97 680.753C1811.99 683.797 1818.73 685.348 1825.48 684.316C1831.23 683.471 1836.38 680.323 1839.76 675.598C1843.59 670.189 1845.03 663.441 1843.73 656.939C1842.62 651.068 1839.09 645.394 1834.09 642.057C1828.13 638.075 1820.76 637.568 1813.93 639.021C1813.36 639.217 1812.76 639.456 1812.15 639.524C1806.59 640.144 1799.18 623.334 1794.58 619.489C1796.37 618.874 1798.1 618.158 1799.76 617.235C1808.2 612.558 1832.33 597.129 1835.07 587.498C1840.87 590.274 1848.95 597.818 1852.74 603.034C1857.59 606.796 1867.31 614.03 1869.84 619.419L1869.66 620.673C1868.55 626.521 1868.1 632.421 1871.69 637.559C1873.6 640.302 1876.15 642.049 1878.93 643.821C1884.56 645.512 1891 646.314 1896.36 643.411C1900.43 641.192 1903.41 637.403 1904.62 632.926C1906 627.931 1905.48 622.647 1902.9 618.123C1900.7 614.317 1897.04 611.581 1892.77 610.56C1885.31 608.699 1880.17 611.038 1873.88 614.69C1870.81 609.473 1862.27 601.731 1856.72 599.154C1855.82 592.132 1841.92 588.914 1840.79 579.839C1845.5 577.468 1849.87 567.707 1852.13 563.037C1854.31 558.523 1859.45 548.776 1857.77 543.978C1858.47 543.336 1859.12 542.661 1859.64 541.855C1863.41 536.041 1864.93 518.845 1863.66 512.082C1863.97 510.178 1863.46 508.754 1862.91 506.934C1864.49 503.282 1864.05 498.942 1863.81 495.057C1862.8 478.932 1856.31 463.658 1848.94 449.477C1846.38 444.558 1843.06 439.817 1841.14 434.615C1841.06 434.415 1841 434.213 1840.93 434.012C1852.49 430.982 1865.35 408.162 1876.59 402.548C1877.41 402.141 1878.07 402.637 1878.91 402.901C1883.99 404.39 1889.83 404.918 1894.89 402.957C1897.59 401.911 1898.84 400.679 1899.97 398.102C1902.38 397.138 1903.8 395.456 1905.01 393.236C1906.97 389.624 1907.43 386.027 1906.2 382.072C1904.53 376.683 1899.99 371.997 1895.03 369.448C1889.78 366.745 1885.07 367.15 1879.6 368.816C1875.37 371.134 1872.65 374.445 1869.56 378.03C1869.43 384.85 1868.98 390.289 1871.64 396.798L1871.54 397.237C1864 405.598 1847.09 425.388 1837.95 430.293C1835.31 429.372 1820.1 412.051 1815.83 408.407C1809.78 403.24 1802.97 398.785 1795.59 395.781C1796.17 395.507 1796.72 395.234 1797.27 394.914C1803.42 391.344 1809.64 381.356 1811.37 374.592C1818.57 375.743 1824.66 376.487 1831.59 373.527C1837.11 371.171 1841.49 366.952 1843.63 361.299C1845.93 355.144 1845.63 348.323 1842.8 342.393C1840.09 336.66 1835.17 332.273 1829.16 330.233C1821.53 327.699 1814.78 329.476 1807.8 332.898C1802.33 337.57 1797.71 342.717 1797.1 350.212C1796.51 357.517 1799.48 363.341 1803.66 369.09L1806.34 371.125C1806.35 376.767 1799.17 385.774 1795.25 389.675C1793.05 391.862 1791.55 392.015 1788.51 392.032C1781.57 383.92 1748.3 380.069 1737.64 379.103C1740.44 373.774 1739.61 344.702 1737.94 338.273C1744.07 336.253 1749.06 334.129 1752.18 328.127C1754.46 323.75 1755.04 318.67 1753.52 313.947C1752.11 309.576 1748.66 305.997 1744.57 304.001C1739.86 301.701 1734.46 301.598 1729.59 303.468C1724.91 305.263 1721.04 308.7 1718.99 313.299C1717.12 317.517 1717.25 322.323 1719.01 326.563C1722.5 335.011 1729.55 334.5 1732.47 338.387C1733.34 346.642 1735.21 373.47 1731.75 379.795C1717.38 380.16 1705.38 382.432 1691.93 387.508C1687.52 389.172 1682.98 391.73 1678.46 392.896C1678.18 386.787 1668.43 374.584 1663.96 370.295C1668.97 366.429 1671.45 361.935 1672.31 355.655C1673.18 349.322 1672.19 343.076 1668.18 337.934C1664.32 332.985 1658.38 329.991 1652.2 329.271C1645.77 328.522 1638.91 330.404 1633.91 334.557C1629.46 338.253 1626.97 343.449 1626.59 349.193C1626.17 355.699 1627.94 362.966 1632.36 367.91C1636.43 372.465 1642.7 374.772 1648.71 375.047C1652.61 375.226 1656.12 374.404 1659.82 373.29C1663.83 378.483 1672.57 389.214 1673.87 395.536C1669.05 400.212 1661.84 403.588 1656.34 407.708C1650.59 412.014 1644.05 419.208 1637.92 422.246C1637.11 424.478 1636.87 424.664 1634.93 426.067C1634.24 426.762 1633.35 427.145 1632.49 427.61C1628.02 426.472 1626.18 421.197 1621.93 419.043C1621.87 418.632 1621.8 417.932 1621.64 417.504C1619.65 411.96 1596.78 385.544 1591.85 383.11C1591.43 383.062 1591.01 383.021 1590.59 382.987C1570.02 381.232 1547.1 382.935 1526.3 382.98C1504.81 383.026 1482.42 381.539 1461.05 382.91C1458.47 383.075 1455.91 383.265 1453.85 384.982L1454.15 386.609C1458.91 390.095 1571.73 386.729 1587.86 388.081C1594.08 389.115 1611.68 412.707 1616.11 418.819C1616.61 419.498 1616.79 420.034 1616.9 420.858C1621.77 425.329 1625.91 433.051 1633.05 433.323C1633.85 433.022 1635.05 432.747 1635.72 432.245C1641.1 430.501 1645.26 424.859 1649.09 420.878C1648.49 425.416 1642.55 430.48 1639.07 433.162C1635.67 435.783 1631.85 438.388 1627.62 439.361C1623.86 436.579 1620.01 434.121 1616.7 430.786C1609.73 423.743 1593.67 401.337 1586.23 397.897L640.431 398.448L335.587 398.447L248.262 398.332C234.223 398.287 219.003 397.015 205.095 398.507C193.78 399.72 183.716 406.527 175.814 414.389C169.877 420.296 164.608 427.745 162.372 435.892C158.036 451.693 160.324 525.833 160.36 547.271C160.375 555.887 160.026 564.862 161.309 573.389Z"/>
	<path fill="#19ACC5" transform="matrix(0.45166 0 0 0.451172 0 3.05176e-05)" d="M1132.38 477.937C1138.74 472.612 1142.87 459.77 1150.09 452.776C1161.16 442.072 1178.27 437.465 1193.36 437.637C1209.98 437.827 1225.37 444.1 1236.99 456.104C1242.8 462.114 1252.07 474.783 1251.91 483.295C1255.69 474.168 1252.85 464.189 1252.97 454.608C1253.02 450.394 1253.61 445.949 1256.9 442.958C1261.38 438.876 1270.27 438.626 1275.99 439.118C1282.46 439.676 1288.27 446.001 1292.09 450.747C1298.2 458.344 1327 501.038 1326.17 508.936C1332.33 491.869 1318.02 458.756 1328.58 442.983C1335.09 440.252 1346.72 437.906 1353.44 440.972C1355.24 441.794 1355.91 442.495 1356.47 444.319C1360.4 457.157 1358.55 502.81 1358.69 518.389C1358.78 528.727 1359.79 539.466 1359.22 549.755C1359.02 553.327 1358.53 559.232 1356.73 562.374C1355.23 565.008 1348.81 567.392 1345.87 567.935C1340.25 568.973 1334.7 567.105 1330.1 563.888C1316.08 554.076 1311.95 534.757 1299.68 523.903C1299.05 518.21 1291.46 508.001 1287.14 504.563L1286.51 504.068C1289.91 510.341 1290.15 547.863 1288.08 555.228C1287.88 555.957 1287.62 556.667 1287.35 557.373C1286.51 560.638 1284.91 562.651 1282.02 564.359C1276.92 567.375 1268.53 568.022 1262.91 566.45C1259.7 565.553 1257.16 563.602 1255.63 560.614C1249.13 547.911 1258.28 531.562 1250.85 518.291C1252.94 527.222 1247.2 535.49 1242.6 542.853C1234.9 555.17 1220.98 564.162 1207.02 567.307C1190.87 570.944 1172.22 568.317 1158.23 559.324C1144.83 550.71 1133.93 533.811 1130.69 518.229C1129.94 514.613 1130.2 509.496 1127.76 506.627C1122.73 508.748 1120.29 518.132 1114.22 521.406C1121.57 526.982 1132.15 542.587 1133.43 551.578C1133.92 554.991 1133.57 559.723 1131.26 562.478C1128.04 566.313 1122.29 568.008 1117.49 568.181C1111.5 568.397 1105.96 566.919 1101.59 562.68C1093.74 555.087 1091.69 540.889 1083.22 534.612C1076.47 534.34 1069.8 534.255 1063.04 534.495C1065.68 539.007 1066.74 550.702 1065.38 555.805C1064.25 560.085 1062.01 563.598 1058.15 565.886C1053.17 568.831 1046.74 568.952 1041.27 567.474C1036.52 566.19 1033.54 563.158 1029.35 561.007C1030.9 556.261 1030.35 476.163 1028.98 473.672C1028.82 473.38 1028.63 473.103 1028.46 472.819L1001.7 472.784C1001.81 489.265 1001.75 505.776 1002.2 522.251C1002.5 533.24 1004.42 546.089 1002.72 556.892C1002.25 559.862 1001.06 562.056 998.965 564.205C998.838 564.335 998.707 564.462 998.578 564.59C993.896 567.521 989.864 569.018 984.265 568.642C977.995 568.223 973 565.341 968.882 560.731C965.116 550.484 967.865 488.426 967.948 472.94L949.334 472.977C944.5 477.804 937.733 486.364 930.282 486.603C917.098 487.026 901.039 461.304 883.185 478.605C877.111 484.492 873.388 492.544 873.482 501.026C873.581 509.899 875.813 519.269 882.346 525.598C887.167 530.268 894.014 533.784 900.868 533.494C916.823 532.816 924.169 512.564 940.894 527.156C943.994 529.861 946.59 532.965 946.926 537.232C947.425 543.569 943.988 550.7 939.891 555.335C931.463 564.869 917.331 568.472 905.017 569.093C886.961 570.003 867.966 565.15 854.343 552.775C852.889 551.454 851.473 550.09 850.098 548.686C849.229 554.463 849.083 560.863 844.317 564.894C841.605 565.954 838.898 566.769 835.981 566.981C829.09 567.479 769.398 568.247 764.881 566.322C762.062 565.121 760.218 563.135 756.999 564.288C754.229 565.28 751.745 566.962 748.76 567.343C739.946 568.466 690.805 569.054 684.325 566.488C683.464 566.147 682.836 565.742 682.084 565.207C680.2 564.034 678.845 562.568 676.529 563.144C673.714 563.846 671.555 566.248 668.592 566.686C659.464 568.036 648.463 566.93 639.156 566.946C625.906 566.97 612.633 567.618 599.403 567.58C599.198 567.585 598.993 567.6 598.788 567.595C594.057 567.476 588.579 566.141 585.142 562.697C583.294 560.845 582.367 558.919 582.025 556.333C579.971 540.803 582.568 515.131 583.318 499.068C583.956 485.432 583.667 471.863 583.922 458.229C584.025 452.696 584.405 446.024 588.724 442.02C591.911 439.066 650.219 439.169 659.402 439.583C666.122 439.886 669.548 440.467 674.262 445.604C679.23 440.567 684.999 439.139 691.954 439.119C696.624 439.105 702.953 439.812 706.444 443.307C708.394 445.26 708.693 447.781 709.014 450.434C710.337 461.4 709.403 473.292 709.327 484.367C709.211 500.845 709.341 517.324 709.718 533.798L754.27 533.855C754.284 518.111 751.313 449.956 759.029 441.522C761.564 438.751 770.822 439.029 774.64 439.041C787.2 439.079 799.76 439.582 812.32 439.604C818.951 439.615 826.056 438.514 832.591 439.538C836.22 440.106 840.008 441.302 842.634 443.995C844.344 445.749 845.821 448.073 847.08 450.177C848.287 454.821 847.78 460.045 847.707 464.818C854.128 457.564 860.554 450.708 868.991 445.759C883.626 437.174 900.36 436.379 916.504 440.367C922.837 441.931 929.833 449.814 935.204 450.015L938.717 446.305C939.24 445.325 939.821 444.309 940.623 443.526C948.509 435.829 1011.04 439.201 1024.84 439.349C1026.68 440.134 1031.4 444.774 1032.87 444.572C1036.97 444.012 1040.66 439.986 1045.42 439.681C1069.15 438.162 1100.06 435.533 1118.87 452.543C1125.29 458.343 1131.86 469.043 1132.38 477.937ZM788.765 486.863C797.178 486.748 828.621 484.812 835.041 487.868L837.479 487.148C838.032 485.589 838.555 484.02 839.05 482.442C839.995 479.355 840.884 476.047 839.33 473.162C822.444 472.878 805.555 472.827 788.668 473.01L788.765 486.863ZM622.666 519.783C620.798 519.996 618.943 520.265 617.083 520.546C614.34 524.473 615.372 529.084 615.56 533.748L673.989 533.676C674.06 522.544 676.05 479.56 672.885 472.357C653.499 472.442 634.114 472.376 614.729 472.161L614.714 487.595C626.053 487.685 656.742 484.37 664.172 491.93C667.808 495.628 668.5 501.137 668.343 506.087C668.215 510.113 667.165 514.244 664.06 517.019C656.098 524.134 632.811 520.489 622.666 519.783ZM1062.71 473.481C1064.98 478.384 1065.65 493.547 1063.75 498.766C1063.58 499.232 1063.18 499.823 1062.94 500.217C1072.02 500.348 1085.4 502.168 1093.57 498.112C1094.1 497.465 1094.91 496.699 1095.24 495.946C1097.65 493.977 1098.82 493.046 1099.18 489.794C1099.64 485.723 1099.96 481.591 1097.28 478.207C1094.13 474.251 1088.36 473.045 1083.59 472.683C1077.1 472.191 1069.09 472.274 1062.71 473.481ZM1181.4 450.643C1152.72 456.752 1134.42 484.941 1140.51 513.622C1146.59 542.303 1174.77 560.629 1203.45 554.565C1232.17 548.495 1250.52 520.282 1244.43 491.568C1238.34 462.855 1210.11 444.526 1181.4 450.643ZM836.747 517.012C825.383 523.769 802.577 520.046 789.233 520.095C789.072 523.773 788.14 529.055 789.951 532.343C791.422 533.133 792.083 533.412 793.75 533.355C809.456 533.41 825.221 533.181 840.919 533.628C840.455 528.403 840.394 522.809 838.259 517.956L836.747 517.012Z"/>
	<path fill="#19ACC5" transform="matrix(0.45166 0 0 0.451172 0 3.05176e-05)" d="M674.262 445.604C679.23 440.567 684.999 439.139 691.954 439.119C696.624 439.105 702.953 439.812 706.444 443.307C708.394 445.26 708.693 447.781 709.014 450.434C710.337 461.4 709.403 473.292 709.327 484.367C709.211 500.845 709.341 517.324 709.718 533.798L754.27 533.855C754.284 518.111 751.313 449.956 759.029 441.522C761.564 438.751 770.822 439.029 774.64 439.041C787.2 439.079 799.76 439.582 812.32 439.604C818.951 439.615 826.056 438.514 832.591 439.538C836.22 440.106 840.008 441.302 842.634 443.995C844.344 445.749 845.821 448.073 847.08 450.177C846.542 456.533 847.499 466.891 842.367 471.655C841.522 472.44 840.413 472.842 839.33 473.162C822.444 472.878 805.555 472.827 788.668 473.01L788.765 486.863C797.178 486.748 828.621 484.812 835.041 487.868C835.213 488.123 835.393 488.373 835.557 488.633C838.561 493.404 836.833 505.113 835.438 510.488L834.127 510.757C831.983 506.066 832.365 500.593 832.187 495.51L780.49 495.51L780.49 463.49C788.443 463.506 829.034 464.974 833.448 463.4C834.162 463.146 835.126 462.294 835.788 461.857C836.698 460.068 837.172 458.891 836.924 456.844C836.728 455.23 836.715 455.317 835.435 454.355C834.425 456.412 834.103 457.883 834.083 460.185C834.081 460.413 834.086 460.642 834.087 460.87C834.046 457.789 834.456 454.339 832.757 451.662C815.682 449.292 784.342 451.356 766.058 451.302L765.978 554.834C784.402 554.798 816.372 552.924 833.269 555.32C834.799 556.278 835.576 557.26 837.391 556.917C841.163 552.606 838.779 542.148 841.512 540.592L843.844 541.934C844.778 547.689 845.959 554.215 844.885 559.973C844.585 561.585 844.489 563.262 844.317 564.894C841.605 565.954 838.898 566.769 835.981 566.981C829.09 567.479 769.398 568.247 764.881 566.322C762.062 565.121 760.218 563.135 756.999 564.288C754.229 565.28 751.745 566.962 748.76 567.343C739.946 568.466 690.805 569.054 684.325 566.488C683.464 566.147 682.836 565.742 682.084 565.207C680.2 564.034 678.845 562.568 676.529 563.144C673.714 563.846 671.555 566.248 668.592 566.686C659.464 568.036 648.463 566.93 639.156 566.946C625.906 566.97 612.633 567.618 599.403 567.58C599.198 567.585 598.993 567.6 598.788 567.595C594.057 567.476 588.579 566.141 585.142 562.697C583.294 560.845 582.367 558.919 582.025 556.333C579.971 540.803 582.568 515.131 583.318 499.068C583.956 485.432 583.667 471.863 583.922 458.229C584.025 452.696 584.405 446.024 588.724 442.02C591.911 439.066 650.219 439.169 659.402 439.583C666.122 439.886 669.548 440.467 674.262 445.604ZM614.714 487.595C626.053 487.685 656.742 484.37 664.172 491.93C667.808 495.628 668.5 501.137 668.343 506.087C668.215 510.113 667.165 514.244 664.06 517.019C656.098 524.134 632.811 520.489 622.666 519.783C620.798 519.996 618.943 520.265 617.083 520.546C614.34 524.473 615.372 529.084 615.56 533.748L673.989 533.676C674.06 522.544 676.05 479.56 672.885 472.357C653.499 472.442 634.114 472.376 614.729 472.161L614.714 487.595Z"/>
	<path fill="#FEFEFE" transform="matrix(0.45166 0 0 0.451172 0 3.05176e-05)" d="M594.121 451.067C616.458 451.075 638.849 450.669 661.176 450.886C663.802 450.911 664.798 450.798 666.671 452.677C667.108 455.178 667.135 456.565 666.075 458.898C664.455 460.473 662.928 461.177 660.679 461.401C655.362 461.931 649.364 460.89 643.981 460.832C631.013 460.691 618.021 460.903 605.051 460.968L604.97 499.016C622.143 498.965 640.248 497.69 657.303 499.331C656.939 502.372 657.074 506.206 655.181 508.585C638.658 509.876 621.568 508.95 604.981 508.868L604.882 544.191C614.643 544.275 662.023 542.336 666.514 545.632C667.279 548.593 667.463 550.215 666.555 553.223C666.087 553.621 665.163 554.646 664.644 554.847C663.684 555.219 602.906 555.597 598.108 555.113C596.713 554.973 595.383 554.261 594.611 553.104C593.458 551.375 593.689 548.385 593.642 546.356C595.844 539.913 594.135 464.922 594.121 451.067Z"/>
	<path fill="#FEFEFE" transform="matrix(0.45166 0 0 0.451172 0 3.05176e-05)" d="M685.188 451.172C688.806 451.038 691.949 451.11 695.487 451.919C698.813 458.16 696.687 531.468 696.648 544.383C710.145 544.279 737.257 542.078 749.032 545.145C750.359 548.007 749.935 551.736 749.926 554.865L685.122 554.879L685.188 451.172Z"/>
	<path fill="#17ADC6" transform="matrix(0.45166 0 0 0.451172 0 3.05176e-05)" d="M847.707 464.818C854.128 457.564 860.554 450.708 868.991 445.759C883.626 437.174 900.36 436.379 916.504 440.367C922.837 441.931 929.833 449.814 935.204 450.015L938.717 446.305C938.537 449.082 939.054 450.556 936.888 452.484C934.787 452.674 932.693 453.002 930.603 452.608L931.142 453.645L932.224 453.895C933.343 459.368 938.844 465.823 936.868 470.776C935.509 471.623 933.997 472.811 932.396 473.01C932.199 473.015 932.002 473.03 931.806 473.025C927.457 472.912 923.309 468.814 919.653 466.667C904.418 457.716 888.158 456.827 874.257 469.028C865.129 477.039 860.434 489.454 859.853 501.383C859.376 511.176 861.38 522.873 868.025 530.455C868.356 530.832 868.48 530.902 868.837 531.167C868.992 531.19 869.148 531.208 869.302 531.237C870.81 531.514 871.401 531.849 872.446 532.946C877.708 538.465 890.834 543.863 898.405 543.818C915.134 543.718 921.579 530.313 930.244 529.285L930.315 527.745C927.812 526.587 925.483 527.074 922.885 527.972C918.856 529.366 916.045 531.79 912.411 533.774C904.69 537.989 894.052 537.486 886.207 533.935C878.998 530.671 873.647 524.371 870.95 516.995C867.493 507.542 868.177 496.234 872.587 487.205C876.337 479.526 882.803 473.272 890.996 470.576C897.86 468.318 905.046 468.806 911.488 472.105C916.327 474.583 925.439 485.507 930.711 483.568C937.443 481.091 942.682 475.55 947.5 470.51C953.009 470.438 965.757 468.961 969.955 472.314C969.58 490.886 969.424 509.463 969.486 528.039C969.484 538.606 970.504 550.307 968.882 560.731C965.116 550.484 967.865 488.426 967.948 472.94L949.334 472.977C944.5 477.804 937.733 486.364 930.282 486.603C917.098 487.026 901.039 461.304 883.185 478.605C877.111 484.492 873.388 492.544 873.482 501.026C873.581 509.899 875.813 519.269 882.346 525.598C887.167 530.268 894.014 533.784 900.868 533.494C916.823 532.816 924.169 512.564 940.894 527.156C943.994 529.861 946.59 532.965 946.926 537.232C947.425 543.569 943.988 550.7 939.891 555.335C931.463 564.869 917.331 568.472 905.017 569.093C886.961 570.003 867.966 565.15 854.343 552.775C852.889 551.454 851.473 550.09 850.098 548.686C849.229 554.463 849.083 560.863 844.317 564.894C844.489 563.262 844.585 561.585 844.885 559.973C845.959 554.215 844.778 547.689 843.844 541.934L841.512 540.592C838.779 542.148 841.163 552.606 837.391 556.917C835.576 557.26 834.799 556.278 833.269 555.32C816.372 552.924 784.402 554.798 765.978 554.834L766.058 451.302C784.342 451.356 815.682 449.292 832.757 451.662C834.456 454.339 834.046 457.789 834.087 460.87C834.086 460.642 834.081 460.413 834.083 460.185C834.103 457.883 834.425 456.412 835.435 454.355C836.715 455.317 836.728 455.23 836.924 456.844C837.172 458.891 836.698 460.068 835.788 461.857C835.126 462.294 834.162 463.146 833.448 463.4C829.034 464.974 788.443 463.506 780.49 463.49L780.49 495.51L832.187 495.51C832.365 500.593 831.983 506.066 834.127 510.757L835.438 510.488C836.833 505.113 838.561 493.404 835.557 488.633C835.393 488.373 835.213 488.123 835.041 487.868L837.479 487.148C838.032 485.589 838.555 484.02 839.05 482.442C839.995 479.355 840.884 476.047 839.33 473.162C840.413 472.842 841.522 472.44 842.367 471.655C847.499 466.891 846.542 456.533 847.08 450.177C848.287 454.821 847.78 460.045 847.707 464.818ZM789.233 520.095C789.072 523.773 788.14 529.055 789.951 532.343C791.422 533.133 792.083 533.412 793.75 533.355C809.456 533.41 825.221 533.181 840.919 533.628C840.455 528.403 840.394 522.809 838.259 517.956L836.747 517.012C825.383 523.769 802.577 520.046 789.233 520.095Z"/>
	<path fill="#FEFEFE" transform="matrix(0.45166 0 0 0.451172 0 3.05176e-05)" d="M766.058 451.302C784.342 451.356 815.682 449.292 832.757 451.662C834.456 454.339 834.046 457.789 834.087 460.87L777.614 460.938L777.51 498.292C790.497 498.127 814.968 495.741 826.509 498.924C827.892 500.981 827.726 502.485 827.623 504.863C821.514 510.662 787.654 508.267 777.568 508.18C777.56 520.081 778.1 532.287 777.056 544.135C789.076 544.063 824.806 542.066 834.252 544.766C835.848 547.468 835.35 550.508 835.189 553.516C834.616 554.084 833.96 554.925 833.269 555.32C816.372 552.924 784.402 554.798 765.978 554.834L766.058 451.302Z"/>
	<path fill="#FEFEFE" transform="matrix(0.45166 0 0 0.451172 0 3.05176e-05)" d="M868.837 531.167C870.501 535.262 875.328 538.82 878.991 541.055C888.917 547.112 904.392 546.386 914.782 541.847C919.36 539.847 923.674 536.731 928.529 535.506C931.133 536.226 931.248 536.385 932.895 538.545C932.906 539.52 933.161 541.072 932.746 541.937C930.25 547.137 919.143 552.018 914.09 553.637C901.136 557.785 885.907 556.567 873.867 550.203C862.498 544.194 854.696 533.82 850.95 521.623C846.244 506.301 847.627 489.059 855.352 474.94C861.549 463.615 871.905 455.787 884.271 452.279C897.522 448.521 913.957 449.706 926.018 456.653C929.905 458.892 933.966 462.807 934.986 467.338C935.422 469.274 933.427 471.364 932.396 473.01C932.199 473.015 932.002 473.03 931.806 473.025C927.457 472.912 923.309 468.814 919.653 466.667C904.418 457.716 888.158 456.827 874.257 469.028C865.129 477.039 860.434 489.454 859.853 501.383C859.376 511.176 861.38 522.873 868.025 530.455C868.356 530.832 868.48 530.902 868.837 531.167Z"/>
	<path fill="#FEFEFE" transform="matrix(0.45166 0 0 0.451172 0 3.05176e-05)" d="M1181.4 450.643C1210.11 444.526 1238.34 462.855 1244.43 491.568C1250.52 520.282 1232.17 548.495 1203.45 554.565C1174.77 560.629 1146.59 542.303 1140.51 513.622C1134.42 484.941 1152.72 456.752 1181.4 450.643ZM1197.15 535.518C1203.18 535.576 1208.39 532.715 1212.64 528.562C1219.63 521.727 1223.46 511.146 1223.49 501.466C1223.52 492.576 1220.3 483.673 1213.84 477.444C1206.05 469.934 1197.42 469.119 1187.18 469.434L1185.23 469.5C1176.61 472.24 1170.11 476.79 1165.74 485.005C1161.13 493.666 1160.46 503.722 1163.36 513.047C1166.03 521.629 1172.2 530.131 1180.28 534.341C1185.62 537.125 1190.29 536.964 1196.14 536.311L1197.15 535.518Z"/>
	<path fill="#FEFEFE" transform="matrix(0.45166 0 0 0.451172 0 3.05176e-05)" d="M1042.23 451.499C1060.98 451.39 1088.52 447.859 1105.48 456.259C1112.81 459.894 1118.55 465.994 1121.02 473.877C1123.56 482.033 1123.13 494.38 1119.04 502.078C1114.82 509.996 1107.49 515.757 1099.01 518.428C1099.22 518.638 1099.43 518.844 1099.64 519.057C1103.97 523.526 1121.21 548.298 1121.17 553.882C1117.21 554.585 1113.61 554.667 1109.6 554.506C1109.58 554.356 1109.59 554.204 1109.55 554.057C1108.56 549.38 1091.72 524.013 1087.68 520.832L1050.91 520.923C1051.61 522.041 1052.18 523.235 1052.46 524.534C1053.34 528.692 1054.08 548.544 1051.78 551.764C1050.39 553.703 1048.54 554.593 1046.15 554.662C1044.51 554.709 1043.7 553.844 1042.67 552.746C1040.88 542.774 1039.75 455.952 1042.23 451.499ZM1062.94 500.217C1072.02 500.348 1085.4 502.168 1093.57 498.112C1094.1 497.465 1094.91 496.699 1095.24 495.946C1097.65 493.977 1098.82 493.046 1099.18 489.794C1099.64 485.723 1099.96 481.591 1097.28 478.207C1094.13 474.251 1088.36 473.045 1083.59 472.683C1077.1 472.191 1069.09 472.274 1062.71 473.481C1064.98 478.384 1065.65 493.547 1063.75 498.766C1063.58 499.232 1063.18 499.823 1062.94 500.217Z"/>
	<path fill="#17ADC6" transform="matrix(0.45166 0 0 0.451172 0 3.05176e-05)" d="M1051.74 461.478C1062.81 459.944 1077.97 459.608 1089.04 461.488C1095.95 462.662 1102.65 465.647 1106.74 471.565C1110.8 477.449 1111.52 485.46 1110.14 492.335C1109.11 497.466 1107.1 501.612 1102.64 504.502C1102.21 505.342 1101.71 506.168 1101.01 506.814C1092.63 514.512 1062.43 511.219 1050.71 511.102C1050.8 510.93 1050.88 510.757 1050.97 510.587C1054.22 504.377 1053.57 468.675 1051.74 461.478ZM1062.94 500.217C1072.02 500.348 1085.4 502.168 1093.57 498.112C1094.1 497.465 1094.91 496.699 1095.24 495.946C1097.65 493.977 1098.82 493.046 1099.18 489.794C1099.64 485.723 1099.96 481.591 1097.28 478.207C1094.13 474.251 1088.36 473.045 1083.59 472.683C1077.1 472.191 1069.09 472.274 1062.71 473.481C1064.98 478.384 1065.65 493.547 1063.75 498.766C1063.58 499.232 1063.18 499.823 1062.94 500.217Z"/>
	<path fill="#FEFEFE" transform="matrix(0.45166 0 0 0.451172 0 3.05176e-05)" d="M1336.41 539.308C1342.25 526.407 1334.43 471.369 1338.64 452.256C1341.3 450.597 1344.65 451.082 1347.69 451.114C1349.39 456.609 1349.44 462.481 1347.83 468.002C1349.92 474.435 1350.13 548.988 1347.6 553.603C1347.51 553.782 1347.39 553.951 1347.29 554.125L1335.37 554.851C1334.79 551.43 1310.87 516.801 1307.92 514.859C1307.28 514.438 1306.63 514.113 1305.92 513.829C1305.99 513.086 1306.02 512.307 1305.81 511.579C1304.57 507.401 1278.89 470.13 1274.37 467.175C1277.34 473.949 1277.15 545.87 1274.69 553.9L1266.39 553.954C1261.59 550.428 1268.12 463.948 1263.23 451.36L1276.21 451.271C1276.89 451.743 1277.54 452.243 1278.16 452.794C1282.42 456.57 1330.29 526.793 1335.23 535.169C1336.04 536.535 1336.35 537.711 1336.41 539.308Z"/>
	<path fill="#FEFEFE" transform="matrix(0.45166 0 0 0.451172 0 3.05176e-05)" d="M947.26 460.915C947.156 458.358 946.424 454.497 947.832 452.298C956.279 451.589 1019.7 450.084 1024.9 452.667C1026.14 455.051 1026.19 455.497 1026 458.187C1024.71 459.9 1024.36 460.743 1022.1 461.092C1012.78 462.54 1001.3 460.964 991.728 460.97L991.746 519.389C991.74 530.23 992.534 541.807 991.067 552.537C989.443 554.053 987.476 554.284 985.237 554.233C984.361 554.214 982.936 554.166 982.332 553.463C976.04 546.145 984.415 475.95 980.052 461.683C972.893 459.256 955.564 461.237 947.26 460.915Z"/>
	<path fill="#17ADC6" transform="matrix(0.45166 0 0 0.451172 0 3.05176e-05)" d="M1503.74 459.227L1504.3 458.804C1508.83 455.373 1512.29 450.808 1516.87 447.435C1527.67 439.486 1544.93 437.825 1557.89 439.476C1569.37 440.937 1583.17 445.48 1590.36 454.973C1593.16 458.668 1595.07 463.555 1594.3 468.243C1593.85 471.017 1592.38 473.355 1590.03 474.909C1585.21 478.097 1577.77 477.828 1572.36 476.619C1560.35 473.934 1548.83 464.453 1536.08 472.053C1533.76 473.434 1533.19 474.378 1532.08 476.773C1532.58 479.533 1532.46 480.293 1534.91 481.95C1538.4 484.307 1543.14 485.198 1547.17 486.247C1564.08 490.641 1580.17 493.898 1590.82 509.077C1590.85 510.031 1590.99 511.099 1590.82 512.036C1592.9 513.597 1593.47 514.527 1594.16 516.955C1596.85 526.418 1595.89 538.342 1590.97 546.952C1585.17 557.103 1574.32 563.002 1563.29 565.816C1548.76 569.524 1528.91 569.087 1516.07 560.666C1511.18 557.459 1507.4 552.728 1502.46 549.882C1502.26 549.769 1502.06 549.664 1501.87 549.555C1501.35 551.61 1499.67 553.095 1498.21 554.559C1489.55 563.233 1474.71 568.035 1462.62 568.055C1446.57 568.082 1431.02 563.212 1419.63 551.456C1405.48 536.848 1400.69 513.886 1403.79 494.204C1404.76 488.008 1407.66 480.723 1407.68 474.615C1407.68 474.439 1407.67 474.264 1407.66 474.088C1407.8 473.917 1407.93 473.747 1408.07 473.574C1422.51 454.594 1425.06 444.067 1452.64 440.146C1466.11 438.232 1483.71 440.579 1494.76 448.923C1497.75 451.176 1502.85 455.43 1503.74 459.227ZM1495.52 483.12C1486.98 488.458 1476.07 474.351 1468.24 471.36C1465.34 470.252 1461.74 470.295 1458.67 470.135C1448.73 473.179 1440.93 476.799 1435.86 486.424C1431.08 495.515 1430.4 506.496 1433.55 516.235C1435.94 523.646 1440.67 530.323 1447.76 533.861C1453.47 536.71 1460.91 537.494 1466.99 535.418C1475.26 532.597 1484.76 519.13 1493.91 523.742C1497.17 525.389 1498.42 526.096 1502.12 525C1508.47 523.119 1514.36 519.971 1520.87 523.463C1531.94 529.405 1531.63 541.406 1552.68 535.507C1555.25 534.785 1557.8 533.114 1559.16 530.752C1560.52 528.382 1560.2 527.057 1559.76 524.528C1556.47 519.639 1525.9 514.648 1515.79 508.523C1501.77 500.026 1502.17 488.192 1495.52 483.12Z"/>
	<path fill="#FEFEFE" transform="matrix(0.45166 0 0 0.451172 0 3.05176e-05)" d="M1528.93 451.96C1543.52 449.295 1568.22 448.947 1580.87 457.948C1582.99 459.451 1583.61 460.516 1584.36 462.944C1583.81 465.359 1583.27 466.768 1581.58 468.6C1566.48 469.906 1558.34 454.27 1530.85 463.607C1529.02 464.955 1527.12 466.33 1525.49 467.911C1522.66 470.659 1520.05 476.042 1520.27 480.037C1521.19 496.791 1566.14 498.49 1579.02 510.219C1583.66 514.443 1586.42 520.137 1586.65 526.432C1586.91 533.888 1585.04 541.44 1579.81 546.95C1571.96 555.222 1559.4 557.975 1548.37 558.309C1524.94 559.02 1520.03 553.903 1503.94 538.781C1507.53 537.058 1510.69 534.538 1513.16 531.413C1521.78 536.705 1523.44 543.328 1535.87 546.55C1544.96 548.908 1556.89 548.298 1565.04 543.425C1568.95 541.092 1571.49 538.09 1572.58 533.59C1573.58 529.42 1573.21 524.915 1570.9 521.229C1565.4 512.454 1550.27 510.51 1540.96 508.158C1530.09 505.411 1517.41 502.147 1511.38 491.7C1508.09 486.003 1507.15 477.396 1509.04 471.093C1511.78 461.939 1521.09 456.341 1528.93 451.96Z"/>
	<path fill="#FEFEFE" transform="matrix(0.45166 0 0 0.451172 0 3.05176e-05)" d="M1483.87 470.855C1482.65 467.586 1480.13 466.137 1476.96 464.728C1467.53 460.548 1456.65 459.422 1446.9 463.202C1437.17 466.977 1429.92 475.03 1425.93 484.548C1420.78 497.065 1420.85 511.124 1426.12 523.591C1430.32 533.404 1437.46 540.708 1447.49 544.517C1456.22 547.831 1467.42 547.385 1475.91 543.421C1482.18 540.49 1487.66 531.623 1495.14 534.074C1496.54 535.594 1496.9 535.855 1496.79 538.073C1496.6 541.969 1492.99 546.438 1490.09 548.771C1480.25 556.678 1465.35 559.504 1453.1 557.957C1439.78 556.25 1427.72 549.209 1419.68 538.446C1410.37 525.991 1407.39 509.53 1409.79 494.338C1412.07 479.942 1419.65 467.007 1431.55 458.484C1442.61 450.715 1456.28 447.601 1469.61 449.812C1478.37 451.29 1491.36 456.515 1496.31 464.404C1496.87 465.282 1497.34 466.292 1497.47 467.332C1495.16 470.507 1493.08 472.229 1489.54 473.965C1487.69 472.844 1485.77 471.863 1483.87 470.855Z"/>
	<path fill="#945512" transform="matrix(0.45166 0 0 0.451172 0 3.05176e-05)" d="M1704.59 436.499C1707.75 436.097 1711 435.628 1714.15 436.324C1738.87 441.78 1717.87 510.046 1731.04 529.916C1733.15 533.105 1736.09 535.092 1739.88 535.733C1745.34 536.657 1751.69 535.302 1756.2 532.078C1759.13 529.988 1762.63 525.969 1763.26 522.358C1763.99 518.146 1765.98 446.86 1765.66 445.058C1769.6 443.125 1772.3 439.308 1776.59 437.636C1780.28 436.199 1784.92 436.576 1788.46 438.28C1794.58 441.231 1798.62 448.089 1800.63 454.328C1805.02 467.963 1805.71 504.563 1803.67 519.083C1802.76 525.56 1800.97 531.723 1797.99 537.564C1791.24 551.016 1779.33 561.165 1764.98 565.703C1745.9 571.593 1727.57 566.34 1710.47 557.484C1705.66 553.019 1701.33 548.086 1696.55 543.65L1681.13 544.408C1682.62 547.277 1682.75 553.326 1682.2 556.566C1681.57 560.293 1679 563.416 1675.92 565.463C1671.72 568.26 1666.06 568.996 1661.16 568.009C1645.36 564.819 1650.98 555.322 1644.63 546.198C1644.52 546.039 1644.4 545.889 1644.29 545.735C1634.33 545.571 1613.16 548.796 1604.93 543.763C1602.09 542.03 1600.49 538.333 1599.95 535.179C1596.82 516.976 1611.34 492.822 1621.35 478.651C1630.53 465.669 1646.72 441.257 1663.85 438.585C1668.25 437.898 1672.08 439.016 1675.6 441.7C1678.52 443.925 1680.75 446.561 1681.25 450.307C1684.06 462.334 1678.21 504.925 1682.62 512.248C1684.92 513.019 1685.18 512.949 1687.53 512.253C1690.19 505.313 1691.73 455.218 1689.64 449.196C1694.29 443.824 1698.18 439.763 1704.59 436.499Z"/>
	<path fill="#82480B" transform="matrix(0.45166 0 0 0.451172 0 3.05176e-05)" d="M1692.27 527.801C1699.92 516.909 1695.83 478.388 1695.68 464.118C1695.63 458.494 1696.49 452.415 1700.72 448.311C1703.23 445.866 1706.82 444.294 1710.37 444.572C1714.39 444.888 1717.74 447.117 1719.37 450.838C1725.78 465.542 1716.89 509.493 1723.37 527.92C1724.64 531.521 1727.71 534.57 1730.23 537.364C1737.55 539.881 1745.72 542.098 1753.4 539.826C1758.84 538.219 1762.83 534.546 1765.38 529.538C1767.54 525.275 1768.45 520.571 1768.87 515.842C1769.56 508.079 1769.08 458.596 1767.41 453.556C1770.22 452.149 1771.91 449.198 1774.53 447.479C1777.91 445.266 1781.53 445.925 1785.23 446.628C1784.3 448.098 1782.05 448.269 1780.38 448.735C1783.53 448.876 1788.22 448.624 1790.5 451.254C1794.15 455.463 1793.37 511.194 1792.48 519.5C1791.24 531.213 1787.56 542.498 1778.09 550.153C1766.8 559.283 1751.55 561.689 1737.47 560.048C1726.08 558.72 1716.8 553.984 1709.06 545.548C1707.16 543.475 1705.44 540.838 1702.94 539.512C1699.55 535.301 1696.55 531.188 1692.27 527.801Z"/>
	<path fill="#A1691A" transform="matrix(0.45166 0 0 0.451172 0 3.05176e-05)" d="M1692.27 527.801C1699.92 516.909 1695.83 478.388 1695.68 464.118C1695.63 458.494 1696.49 452.415 1700.72 448.311C1703.23 445.866 1706.82 444.294 1710.37 444.572C1714.39 444.888 1717.74 447.117 1719.37 450.838C1725.78 465.542 1716.89 509.493 1723.37 527.92C1724.64 531.521 1727.71 534.57 1730.23 537.364C1737.55 539.881 1745.72 542.098 1753.4 539.826C1758.84 538.219 1762.83 534.546 1765.38 529.538C1767.54 525.275 1768.45 520.571 1768.87 515.842C1769.56 508.079 1769.08 458.596 1767.41 453.556C1770.22 452.149 1771.91 449.198 1774.53 447.479C1777.91 445.266 1781.53 445.925 1785.23 446.628C1784.3 448.098 1782.05 448.269 1780.38 448.735C1777.95 449.204 1776.01 449.595 1774.6 451.791C1772.12 455.646 1772.72 463.041 1772.76 467.546L1773.04 497.357C1773.21 514.572 1775.13 536.871 1754.1 542.515C1746.75 544.489 1737.23 543.251 1730.76 539.2C1730.29 538.905 1729.91 538.575 1729.47 538.227C1723.61 534.749 1720.99 531.855 1719.34 525.137C1714.5 505.346 1721.4 476.073 1717.76 457.036C1717.19 454.025 1716.03 451.148 1713.38 449.366C1710.81 447.64 1708.28 447.862 1705.42 448.388C1702.47 450.142 1701.14 452.113 1700.27 455.359C1697.46 465.926 1698.73 505.801 1699.82 518.012C1700.14 521.681 1703.57 537.544 1702.94 539.512C1699.55 535.301 1696.55 531.188 1692.27 527.801Z"/>
	<path fill="#FEFEFE" transform="matrix(0.45166 0 0 0.451172 0 3.05176e-05)" d="M1703.42 453.499C1705.46 453.27 1708.07 452.736 1710.08 453.186C1711.38 453.479 1712.15 453.562 1712.71 454.889C1714.26 458.552 1713.6 465.12 1713.62 469.174C1713.68 483.856 1710.95 523.993 1718.37 535.46C1722.5 541.852 1729.74 545.519 1737.02 547.049C1746.52 549.049 1757.3 547.704 1765.47 542.223C1787.31 527.558 1772.38 481.153 1777.23 459.333C1777.92 456.238 1779.07 454.727 1781.68 453.052C1784.45 453.423 1784.6 453.602 1786.6 455.579C1786.98 458.67 1786.42 459.706 1785.24 462.493C1785.92 463.589 1786.51 464.752 1786.74 466.035C1788.23 474.389 1787.65 516.657 1786.06 525.547C1785.02 531.339 1783.14 536.946 1779.58 541.696C1773.49 549.85 1763.96 554.089 1754.08 555.486C1741.71 557.237 1727.68 555.327 1717.57 547.589C1694.27 529.751 1707 480.651 1703.53 454.311L1703.42 453.499Z"/>
	<path fill="#FEFEFE" transform="matrix(0.45166 0 0 0.451172 0 3.05176e-05)" d="M1657.99 453.499C1660.58 452.919 1664.63 452.149 1667.19 452.759C1669.22 453.241 1669.36 453.429 1670.5 455.153C1670.85 466.978 1672.35 515.572 1669 523.936C1670.53 523.895 1672.06 523.868 1673.59 523.855C1677.4 523.826 1680.38 523.429 1683.24 526.438C1684.37 527.621 1684.18 527.839 1684.18 529.466C1683.7 530.06 1683.21 530.628 1682.64 531.149C1679.35 534.176 1672.86 533.071 1668.66 532.928C1670.81 536.264 1670.95 544.794 1670.67 548.75C1670.47 551.688 1669.45 553.794 1667.19 555.719C1664.82 556.326 1664.22 556.53 1661.89 555.872C1658.81 549.641 1663.33 540.673 1660.13 534.058L1657.28 533.067C1644.65 533.218 1625.77 535.419 1613.92 533.075C1611.28 532.553 1610.87 532.142 1609.43 529.948C1608.79 514.937 1648.68 469.91 1657.73 453.967C1657.82 453.812 1657.9 453.655 1657.99 453.499Z"/>
	<path fill="#82480B" transform="matrix(0.45166 0 0 0.451172 0 3.05176e-05)" d="M1659.58 465.499L1660.59 466.556C1662.43 473.505 1662.13 518.484 1659.51 523.867L1622.48 523.835C1622.36 518.14 1654.91 475.686 1659.58 465.499Z"/>
	<path fill="#FEFEFE" transform="matrix(0.45166 0 0 0.451172 0 3.05176e-05)" d="M221.07 450.611C236.696 450.797 263.698 447.725 277.911 451.984C284.742 454.032 290.307 458.514 293.647 464.833C296.698 470.607 298.693 478 296.621 484.398C293.985 492.537 287.315 497.356 280.09 501.075C288.779 505.901 294.512 509.716 299.24 518.672C299.612 525.982 299.538 532.56 297.46 539.64C295.94 542.579 294.338 545.287 291.997 547.66C279.703 560.121 238.178 555.829 220.883 555.715C220.765 520.681 220.827 485.645 221.07 450.611ZM233.331 545.05C247.115 545.163 271.749 548.344 283.212 540.681C287.605 534.597 288.164 529.437 286.986 522.157C286.713 520.486 286.417 518.819 286.1 517.156C279.753 510.148 274.541 507.589 265.001 507.125C254.581 506.618 243.783 507.428 233.32 507.386L233.331 545.05ZM233.277 496.671C245.894 496.817 269.138 499.897 279.751 492.979C285.166 486.316 285.06 481.337 284.572 473.037C281.593 467.477 279.252 464.335 273.063 462.459C261.057 458.819 245.78 461.678 233.227 461.224L233.277 496.671Z"/>
	<path fill="#19ACC5" transform="matrix(0.45166 0 0 0.451172 0 3.05176e-05)" d="M1372.42 440.499C1378.42 439.92 1385.7 438.945 1391.47 440.888C1394.31 441.847 1396.34 443.436 1397.68 446.171C1398.47 458.899 1398.75 558.09 1397.1 561.316C1395.39 564.647 1391.65 565.643 1388.34 566.5C1384.97 567.607 1380.16 567.603 1376.66 567.202C1373.41 566.829 1369.86 566.153 1367.78 563.539C1365.89 551.504 1364.31 453.101 1366.71 445.36C1367.35 443.296 1370.65 441.586 1372.42 440.499Z"/>
	<path fill="#FEFEFE" transform="matrix(0.45166 0 0 0.451172 0 3.05176e-05)" d="M1375.95 451.498C1379.51 451.113 1382.57 451.032 1386.11 451.583C1387.67 453.323 1387.47 455.866 1387.6 458.17C1388.55 475.638 1387.52 493.614 1387.52 511.136C1387.52 523.757 1388.76 536.742 1387.59 549.305C1387.43 551.1 1387.09 552.138 1385.88 553.503C1383.67 555.327 1378.73 554.541 1375.96 554.422C1377.95 543.338 1378.43 460.745 1375.95 451.498Z"/>
	<path fill="#FEFEFE" transform="matrix(0.45166 0 0 0.451172 0 3.05176e-05)" d="M319.614 450.571C334.205 450.463 368.906 448.736 381.517 450.649C384.394 451.085 386.573 451.751 388.746 453.764C389.796 456.472 389.769 456.863 389.154 459.713C384.696 463.176 340.163 461.327 331.399 461.334L331.414 497.62C342.494 497.698 376.038 495.38 384.548 498.658C384.979 499.479 385.324 500.294 385.445 501.225C385.815 504.069 385.208 505.871 383.327 507.865C377.129 510.103 343.838 508.391 334.75 508.405L332.692 508.547C329.7 512.412 331.357 538.433 331.424 544.596L390.514 544.614L390.299 555.351C366.837 555.613 343.346 555.375 319.881 555.37C318.517 520.609 319.653 485.383 319.614 450.571Z"/>
	<path fill="#FEFEFE" transform="matrix(0.45166 0 0 0.451172 0 3.05176e-05)" d="M436.988 448.996C446.812 448.059 461.413 449.496 469.8 455.347C472.191 457.016 476.15 461.567 476.585 464.262C476.198 465.017 475.745 465.808 475.093 466.368C473.707 467.558 470.614 468.931 468.787 468.578C458.069 466.507 454.951 460.027 440.018 460.123C434 460.161 428.17 461.392 423.904 465.933C420.65 469.399 418.751 473.605 419.043 478.381C420.256 498.158 461.359 497.564 476.018 510.967C480.318 514.899 482.865 519.637 483.056 525.514C483.283 532.505 480.193 542.819 475.131 547.844C467.992 554.932 454.245 557.288 444.685 557.464L443.82 557.482C428.351 557.753 415.438 553.168 404.215 542.373C406.336 539.395 408.712 536.709 411.145 533.985C412.893 535.388 414.671 536.753 416.479 538.079C426.615 545.39 439.856 548.021 452.171 545.853C457.099 544.985 465.019 542.614 467.869 538.311C470.233 534.741 470.613 529.843 469.639 525.736C465.877 509.878 431.506 508.223 418.639 500.09C413.075 496.574 408.488 491.467 407.117 484.871C405.453 476.866 406.403 470.274 410.844 463.498C417.317 453.619 426.042 451.188 436.988 448.996Z"/>
	<path fill="#17E6F8" transform="matrix(0.45166 0 0 0.451172 0 3.05176e-05)" d="M1761.13 410.962C1739.89 405.204 1716.4 405.868 1696.13 414.945C1690.47 417.477 1684.53 422.327 1678.76 424.077C1676.28 424.829 1675.19 424.113 1673.11 422.948L1672.83 421.195C1672.99 420.986 1673.15 420.772 1673.31 420.568C1681.66 410.315 1711.43 402.639 1724.35 401.374C1733.66 400.464 1756.1 399.619 1763.69 405.865C1784.25 408.254 1807.98 426.658 1820.44 442.5C1826.04 449.62 1840.04 471.618 1838.72 480.897C1838.66 481.354 1838.54 481.712 1838.42 482.168C1843.92 488.061 1843.69 505.276 1843.4 513.15C1842.39 539.746 1829.58 566.886 1810.06 584.911C1800.39 593.833 1783.05 605.897 1769.62 607.085C1769.33 607.385 1768.86 607.907 1768.48 608.16C1766.54 609.438 1763.23 609.753 1760.97 610.285C1743.84 614.339 1725.99 614.188 1708.93 609.846C1698.47 607.265 1679.05 601.005 1673.25 591.322L1673.88 590.177C1682.69 589.238 1691.37 597.044 1699.33 600.266C1719.67 608.498 1742.94 608.663 1763.88 603.039C1769.4 601.562 1774.98 599.578 1780.18 597.215C1804.23 586.298 1822.04 566.342 1831.17 541.594C1836.63 526.785 1840.41 502.824 1833.54 488.007C1835.05 481.825 1828.89 468.516 1825.85 462.888C1811.84 436.99 1789.2 419.372 1761.13 410.962Z"/>
	<path fill="#FEFEFE" transform="matrix(0.45166 0 0 0.451172 0 3.05176e-05)" d="M491.776 450.621C515.412 450.897 539.426 449.35 562.992 450.381C566.054 450.515 568.339 450.597 570.426 452.863C570.668 455.452 570.82 457.486 570.037 460.031C565.502 463.085 544.708 461.414 538.198 461.39C537.927 482.676 537.928 503.964 538.201 525.25C538.374 532.889 539.372 541.815 537.983 549.297C537.382 552.539 536.38 554.074 533.726 555.936C531.197 556.01 529.888 555.403 527.754 554.094C523.858 545.658 525.801 476.58 525.739 461.403C516.299 461.269 501.318 464.326 493.164 459.687C491.333 456.443 491.766 454.304 491.776 450.621Z"/>
	<path fill="#0F5E78" transform="matrix(0.45166 0 0 0.451172 0 3.05176e-05)" d="M199.551 372.963C211.729 370.283 226.741 371.919 239.294 371.934L312.254 372.035L600.104 372.069L1249.87 372.056L1480.26 372.939C1515.26 373.086 1551.03 371.06 1585.92 372.929C1590.42 373.17 1594.98 373.38 1598.88 375.863C1610.42 383.213 1628.11 418.169 1637.92 422.246C1637.11 424.478 1636.87 424.664 1634.93 426.067C1634.24 426.762 1633.35 427.145 1632.49 427.61C1628.02 426.472 1626.18 421.197 1621.93 419.043C1621.87 418.632 1621.8 417.932 1621.64 417.504C1619.65 411.96 1596.78 385.544 1591.85 383.11C1591.43 383.062 1591.01 383.021 1590.59 382.987C1570.02 381.232 1547.1 382.935 1526.3 382.98C1504.81 383.026 1482.42 381.539 1461.05 382.91C1458.47 383.075 1455.91 383.265 1453.85 384.982L1454.15 386.609C1458.91 390.095 1571.73 386.729 1587.86 388.081C1581.5 392.535 1525.69 389.327 1513.55 390.293L673.033 391.217L387.204 390.835L295.66 390.654C279.865 390.627 263.282 389.616 247.569 391.021C222.739 390.784 193.094 386.738 173.662 405.801C173.442 406.017 173.228 406.239 173.011 406.458C164.435 412.948 156.974 425.456 155.392 436.242C152.409 456.579 154.681 479.483 154.756 500.068C154.842 523.448 152.307 551.912 156.429 574.715C157.985 583.32 160.756 589.918 166.057 596.888C174.549 608.052 187.872 617.713 201.991 619.556C225.871 622.671 261.951 620.595 287.073 620.583L454.762 620.509L1142.04 620.771L1348.14 620.697C1379.59 620.663 1411.32 619.689 1442.74 620.435C1445.23 620.494 1446.83 620.337 1448.8 621.967L1449.75 625.152L1451.48 627.711C1450.93 629.092 1450.98 629.608 1449.54 630.252C1443.45 632.967 1045.99 631.634 1002.64 631.654L683.109 632.435L577.257 632.439C563.283 632.382 539.631 630.427 526.654 632.904C501.245 631.306 474.875 632.838 449.367 632.727L286.373 632.271C260.339 632.331 233.235 633.931 207.317 631.911C187.17 630.34 171.23 622.103 158.108 606.725C150.804 598.165 146.144 588.089 143.931 577.081C139.937 557.212 142.726 528.393 142.678 507.365C142.627 485.159 140.942 461.958 142.768 439.872C144.57 418.074 155.402 403.881 171.572 390.187C175.196 385.889 181.403 385.39 184.901 380.624C177.425 379.853 169.375 389.648 161.882 390.75C161.664 390.782 161.445 390.798 161.226 390.821C161.624 390.366 162.043 389.929 162.48 389.511C170.75 381.521 187.891 372.823 199.551 372.963Z"/>
	<path fill="#0D86A0" transform="matrix(0.45166 0 0 0.451172 0 3.05176e-05)" d="M161.226 390.821C161.624 390.366 162.043 389.929 162.48 389.511C170.75 381.521 187.891 372.823 199.551 372.963C217.004 374.582 235.374 373.538 252.917 373.533L350.391 373.499C478.939 372.859 607.489 373.191 736.031 374.496C767.051 374.877 798.107 374.697 829.131 374.688C843.723 374.684 859.029 373.718 873.552 374.904C873.304 374.981 873.057 375.062 872.807 375.135C863.827 377.786 837.078 374.202 832.271 376.72C836.423 378.391 843.944 377.388 848.565 377.418C863.072 377.512 920.5 375.501 929.627 378.961C911.079 379.866 892.304 379.296 873.73 379.27L764.168 379L395.912 379.068C350.873 378.776 305.833 378.804 260.795 379.151C240.745 379.219 218.777 377.186 198.943 379.856C189.162 381.173 180.575 386.579 171.572 390.187C175.196 385.889 181.403 385.39 184.901 380.624C177.425 379.853 169.375 389.648 161.882 390.75C161.664 390.782 161.445 390.798 161.226 390.821Z"/>
	<path fill="#19ACC5" transform="matrix(0.45166 0 0 0.451172 0 3.05176e-05)" d="M873.552 374.904C902.017 373.531 930.958 374.662 959.484 374.54L1161.61 374.557L1284.34 374.824C1303.16 374.826 1324.94 372.853 1343.4 374.947C1343.65 375.017 1343.9 375.091 1344.15 375.158C1352.52 377.397 1387.35 373.938 1391.22 377.126C1370.72 379.519 1297.78 374.423 1285.39 378.906C1272.54 380.12 1258.62 379.061 1245.67 379.084L1162.88 379.199C1085.17 379.151 1007.32 380.122 929.627 378.961C920.5 375.501 863.072 377.512 848.565 377.418C843.944 377.388 836.423 378.391 832.271 376.72C837.078 374.202 863.827 377.786 872.807 375.135C873.057 375.062 873.304 374.981 873.552 374.904Z"/>
	<path fill="#0D86A0" transform="matrix(0.45166 0 0 0.451172 0 3.05176e-05)" d="M1343.4 374.947C1366.04 373.443 1389.14 374.446 1411.85 374.544C1425.15 374.602 1439.28 373.51 1452.44 374.935C1468.36 374.642 1591.14 373.419 1596.25 376.78C1595.34 378.311 1595.24 378.271 1593.49 378.697C1585.04 380.75 1479.09 380.617 1466.57 379.178C1440.5 380.161 1414 379.303 1387.88 379.291C1353.76 379.276 1319.48 379.875 1285.39 378.906C1297.78 374.423 1370.72 379.519 1391.22 377.126C1387.35 373.938 1352.52 377.397 1344.15 375.158C1343.9 375.091 1343.65 375.017 1343.4 374.947Z"/>
	<path fill="#FEFEFE" transform="matrix(0.45166 0 0 0.451172 0 3.05176e-05)" d="M200.997 382.251C219.779 380.035 245.501 381.921 265.118 381.969L395.092 382.036L840.089 382.012L1263.82 382.018L1391.52 382.049C1406.79 382.085 1430.52 380.377 1444.6 382.185C1447.06 382.501 1448.51 382.852 1450.05 384.852C1449.38 386.194 1448.83 387.508 1447.2 387.94C1442.33 389.229 1422.98 387.918 1416.78 387.92L1304.73 387.952L549.471 387.821L313.561 387.858L241.511 387.793C228.382 387.784 214.633 387.011 201.592 388.349C191.137 389.421 178.659 396.246 170.748 403.091C158.889 413.352 152.487 428.234 151.28 443.663C149.536 465.954 151.04 489.427 151.114 511.834C151.18 531.734 148.531 555.182 152.499 574.581C154.619 584.71 159.265 594.138 166.005 601.991C177.565 615.445 193.169 622.173 210.635 623.447C249.453 624.721 288.595 623.723 327.444 623.735L544.654 623.886L1219.75 623.987L1373.43 624.015C1395.35 624.045 1417.73 622.908 1439.58 623.825C1442.56 623.949 1445.31 624.092 1448.05 625.381L1448.15 626.956L1445.93 628.551C1424.05 629.957 1401.43 628.856 1379.48 628.858L1252.06 628.859L863.661 628.969L427.792 628.925L284.956 629.007C260.235 629.025 235.109 630.081 210.449 628.809C197.291 628.131 184.745 624.668 173.673 617.367C159.067 607.736 149.828 592.287 146.456 575.287C142.415 554.91 145.072 529.102 145.029 508.178C144.985 486.83 142.698 456.805 145.98 436.266C147.433 427.033 150.871 418.225 156.057 410.45C166.681 394.584 182.554 385.833 200.997 382.251Z"/>
	<path fill="#17E6F8" transform="matrix(0.45166 0 0 0.451172 0 3.05176e-05)" d="M1732.47 338.387C1729.55 334.5 1722.5 335.011 1719.01 326.563C1717.25 322.323 1717.12 317.517 1718.99 313.299C1721.04 308.7 1724.91 305.263 1729.59 303.468C1734.46 301.598 1739.86 301.701 1744.57 304.001C1748.66 305.997 1752.11 309.576 1753.52 313.947C1755.04 318.67 1754.46 323.75 1752.18 328.127C1749.06 334.129 1744.07 336.253 1737.94 338.273C1739.61 344.702 1740.44 373.774 1737.64 379.103C1748.3 380.069 1781.57 383.92 1788.51 392.032C1791.55 392.015 1793.05 391.862 1795.25 389.675C1799.17 385.774 1806.35 376.767 1806.34 371.125L1803.66 369.09C1799.48 363.341 1796.51 357.517 1797.1 350.212C1797.71 342.717 1802.33 337.57 1807.8 332.898C1814.78 329.476 1821.53 327.699 1829.16 330.233C1835.17 332.273 1840.09 336.66 1842.8 342.393C1845.63 348.323 1845.93 355.144 1843.63 361.299C1841.49 366.952 1837.11 371.171 1831.59 373.527C1824.66 376.487 1818.57 375.743 1811.37 374.592C1809.64 381.356 1803.42 391.344 1797.27 394.914C1796.72 395.234 1796.17 395.507 1795.59 395.781C1802.97 398.785 1809.78 403.24 1815.83 408.407C1820.1 412.051 1835.31 429.372 1837.95 430.293C1847.09 425.388 1864 405.598 1871.54 397.237L1871.64 396.798C1868.98 390.289 1869.43 384.85 1869.56 378.03C1872.65 374.445 1875.37 371.134 1879.6 368.816C1885.07 367.15 1889.78 366.745 1895.03 369.448C1899.99 371.997 1904.53 376.683 1906.2 382.072C1907.43 386.027 1906.97 389.624 1905.01 393.236C1903.8 395.456 1902.38 397.138 1899.97 398.102C1898.84 400.679 1897.59 401.911 1894.89 402.957C1889.83 404.918 1883.99 404.39 1878.91 402.901C1878.07 402.637 1877.41 402.141 1876.59 402.548C1865.35 408.162 1852.49 430.982 1840.93 434.012C1841 434.213 1841.06 434.415 1841.14 434.615C1843.06 439.817 1846.38 444.558 1848.94 449.477C1856.31 463.658 1862.8 478.932 1863.81 495.057C1864.05 498.942 1864.49 503.282 1862.91 506.934C1863.46 508.754 1863.97 510.178 1863.66 512.082C1864.93 518.845 1863.41 536.041 1859.64 541.855C1859.12 542.661 1858.47 543.336 1857.77 543.978C1859.45 548.776 1854.31 558.523 1852.13 563.037C1849.87 567.707 1845.5 577.468 1840.79 579.839C1841.92 588.914 1855.82 592.132 1856.72 599.154C1862.27 601.731 1870.81 609.473 1873.88 614.69C1880.17 611.038 1885.31 608.699 1892.77 610.56C1897.04 611.581 1900.7 614.317 1902.9 618.123C1905.48 622.647 1906 627.931 1904.62 632.926C1903.41 637.403 1900.43 641.192 1896.36 643.411C1891 646.314 1884.56 645.512 1878.93 643.821C1876.15 642.049 1873.6 640.302 1871.69 637.559C1868.1 632.421 1868.55 626.521 1869.66 620.673L1869.84 619.419C1867.31 614.03 1857.59 606.796 1852.74 603.034C1848.95 597.818 1840.87 590.274 1835.07 587.498C1832.33 597.129 1808.2 612.558 1799.76 617.235C1798.1 618.158 1796.37 618.874 1794.58 619.489C1799.18 623.334 1806.59 640.144 1812.15 639.524C1812.76 639.456 1813.36 639.217 1813.93 639.021C1820.76 637.568 1828.13 638.075 1834.09 642.057C1839.09 645.394 1842.62 651.068 1843.73 656.939C1845.03 663.441 1843.59 670.189 1839.76 675.598C1836.38 680.323 1831.23 683.471 1825.48 684.316C1818.73 685.348 1811.99 683.797 1805.97 680.753C1801.63 675.311 1796.88 669.496 1795.58 662.394C1794.87 658.452 1799.93 650.42 1802.27 647.215C1802.99 646.237 1803.67 645.238 1804.37 644.251C1800.98 636.911 1795 628.052 1789.1 622.569C1786.05 624.384 1783 625.092 1779.57 625.887C1779.22 626.339 1779.17 626.455 1778.62 626.816C1775.31 628.973 1768.58 630.385 1764.65 631.32C1736.19 638.103 1709.38 632.778 1682.12 624.087C1682.09 624.443 1682.07 625.047 1681.96 625.422C1680.33 630.914 1669.71 642.658 1664.59 645.475C1668.56 648.641 1671.23 653.155 1672.09 658.158C1673.05 663.723 1671.42 669.266 1668.18 673.82C1664.34 679.21 1658.52 682.86 1652 683.972C1646.42 684.878 1640.72 683.731 1636.16 680.328C1631.04 676.503 1627.48 670.017 1626.75 663.694C1626.05 657.68 1627.92 651.715 1631.7 647.011C1635.38 642.427 1640.52 638.973 1646.46 638.395C1650.87 637.966 1657.31 639.58 1660.76 642.362C1665.53 638.511 1675.39 627.205 1677.05 621.351C1673.36 617.38 1664.58 613.668 1659.83 610.248C1650.97 603.862 1643.06 595.035 1633.85 589.495C1633.8 589.695 1633.78 589.902 1633.71 590.096C1632.23 594.185 1609.47 619.641 1605.87 621.132L1606.28 618.836L1604.99 617.675L1601.14 618.162C1605.28 614.801 1632.52 583.667 1633.42 580.324C1633.66 580.448 1633.89 580.569 1634.12 580.696C1643.55 585.85 1651.02 595.947 1659.7 602.488C1692.31 627.086 1731.31 633.184 1770.47 622.878C1780.69 620.065 1790.39 615.452 1799.45 610.02C1808.71 604.472 1833.13 586.979 1835.86 576.155C1836.03 575.991 1836.21 575.83 1836.39 575.664C1842.91 569.48 1852.39 549.74 1852.5 540.91C1852.82 540.399 1853.11 539.883 1853.36 539.341C1863.18 518.634 1857.71 487.184 1849.88 466.721C1838.81 437.779 1816.3 410.8 1787.62 398.033C1769.78 385.732 1733.67 383.676 1712.86 387.513C1695.47 390.718 1677.56 398.447 1663.59 409.336C1659.04 412.881 1654.17 418.422 1649.09 420.878C1645.26 424.859 1641.1 430.501 1635.72 432.245C1635.05 432.747 1633.85 433.022 1633.05 433.323C1625.91 433.051 1621.77 425.329 1616.9 420.858C1616.79 420.034 1616.61 419.498 1616.11 418.819C1611.68 412.707 1594.08 389.115 1587.86 388.081C1571.73 386.729 1458.91 390.095 1454.15 386.609L1453.85 384.982C1455.91 383.265 1458.47 383.075 1461.05 382.91C1482.42 381.539 1504.81 383.026 1526.3 382.98C1547.1 382.935 1570.02 381.232 1590.59 382.987C1591.01 383.021 1591.43 383.062 1591.85 383.11C1596.78 385.544 1619.65 411.96 1621.64 417.504C1621.8 417.932 1621.87 418.632 1621.93 419.043C1626.18 421.197 1628.02 426.472 1632.49 427.61C1633.35 427.145 1634.24 426.762 1634.93 426.067C1636.87 424.664 1637.11 424.478 1637.92 422.246C1644.05 419.208 1650.59 412.014 1656.34 407.708C1661.84 403.588 1669.05 400.212 1673.87 395.536C1672.57 389.214 1663.83 378.483 1659.82 373.29C1656.12 374.404 1652.61 375.226 1648.71 375.047C1642.7 374.772 1636.43 372.465 1632.36 367.91C1627.94 362.966 1626.17 355.699 1626.59 349.193C1626.97 343.449 1629.46 338.253 1633.91 334.557C1638.91 330.404 1645.77 328.522 1652.2 329.271C1658.38 329.991 1664.32 332.985 1668.18 337.934C1672.19 343.076 1673.18 349.322 1672.31 355.655C1671.45 361.935 1668.97 366.429 1663.96 370.295C1668.43 374.584 1678.18 386.787 1678.46 392.896C1682.98 391.73 1687.52 389.172 1691.93 387.508C1705.38 382.432 1717.38 380.16 1731.75 379.795C1735.21 373.47 1733.34 346.642 1732.47 338.387ZM1820.72 644.619C1815.8 645.098 1809.25 647.166 1805.84 650.946C1803.28 653.78 1802.8 657.121 1803.19 660.798C1804.29 671.222 1807.72 669.65 1810.99 676.877C1813.18 677.373 1815.4 677.874 1817.62 678.201C1822.57 678.929 1827.54 677.335 1831.48 674.308C1835.11 671.565 1837.48 667.471 1838.05 662.955C1838.59 658.633 1837.46 654.409 1834.65 651.054C1830.99 646.678 1826.25 645.029 1820.72 644.619ZM1809.15 364.85C1815.16 370.791 1824.59 371.492 1831.42 366.504C1838.24 361.516 1840.44 352.313 1836.6 344.781C1832.77 337.249 1824.03 333.613 1815.98 336.199C1810.25 338.041 1805.9 342.742 1804.5 348.599C1803.1 354.456 1804.86 360.617 1809.15 364.85ZM1876.42 623.258C1874.77 627.501 1875.77 632.315 1878.96 635.56C1882.15 638.804 1886.95 639.876 1891.22 638.299C1896.21 636.454 1899.31 631.436 1898.71 626.143C1898.11 620.85 1893.98 616.649 1888.69 615.965C1883.41 615.281 1878.34 618.291 1876.42 623.258ZM1884.96 374.327C1879.81 375.438 1875.96 379.735 1875.42 384.976C1874.85 390.417 1877.99 395.566 1883.08 397.564C1887.53 399.311 1892.59 398.293 1896.01 394.961C1899.91 391.175 1900.83 385.267 1898.26 380.48C1895.7 375.692 1890.27 373.182 1884.96 374.327ZM1653.55 677.241C1659.34 675.618 1663.81 670.996 1665.23 665.152C1666.65 659.308 1664.8 653.152 1660.4 649.052C1656 644.952 1649.73 643.546 1644 645.375C1635.36 648.133 1630.52 657.307 1633.13 665.998C1635.73 674.688 1644.82 679.69 1653.55 677.241ZM1653.84 368.545C1662.8 366.249 1668.28 357.227 1666.2 348.218C1664.12 339.209 1655.23 333.506 1646.18 335.369C1640.12 336.615 1635.22 341.044 1633.36 346.941C1631.51 352.837 1633 359.276 1637.25 363.763C1641.5 368.25 1647.85 370.08 1653.84 368.545ZM1733.4 306.984C1728.72 307.837 1724.86 311.146 1723.31 315.642C1721.76 320.137 1722.75 325.12 1725.9 328.679C1729.06 332.238 1733.89 333.819 1738.54 332.817C1745.57 331.301 1750.08 324.426 1748.68 317.371C1747.27 310.317 1740.47 305.693 1733.4 306.984Z"/>
	<path fill="#17E6F8" transform="matrix(0.45166 0 0 0.451172 0 3.05176e-05)" d="M1647.79 347.456C1649.79 346.53 1652.13 346.769 1653.9 348.078C1655.67 349.387 1656.58 351.558 1656.28 353.739C1655.98 355.92 1654.52 357.763 1652.46 358.546C1649.43 359.7 1646.03 358.246 1644.77 355.257C1643.51 352.268 1644.85 348.818 1647.79 347.456Z"/>
	<path fill="#0E6C83" transform="matrix(0.45166 0 0 0.451172 0 3.05176e-05)" d="M1587.86 388.081C1594.08 389.115 1611.68 412.707 1616.11 418.819C1616.61 419.498 1616.79 420.034 1616.9 420.858C1621.77 425.329 1625.91 433.051 1633.05 433.323C1633.85 433.022 1635.05 432.747 1635.72 432.245C1641.1 430.501 1645.26 424.859 1649.09 420.878C1648.49 425.416 1642.55 430.48 1639.07 433.162C1635.67 435.783 1631.85 438.388 1627.62 439.361C1623.86 436.579 1620.01 434.121 1616.7 430.786C1609.73 423.743 1593.67 401.337 1586.23 397.897L640.431 398.448L335.587 398.447L248.262 398.332C234.223 398.287 219.003 397.015 205.095 398.507C193.78 399.72 183.716 406.527 175.814 414.389C169.877 420.296 164.608 427.745 162.372 435.892C158.036 451.693 160.324 525.833 160.36 547.271C160.375 555.887 160.026 564.862 161.309 573.389C159.856 571.976 159.01 570.956 158.802 568.873C156.696 547.77 158.507 524.984 158.505 503.727C158.504 488.856 156.514 448.861 159.457 436.115C161.569 426.968 166.65 420.043 172.458 412.954C172.941 412.432 173.435 411.92 173.939 411.417C180.941 404.444 191.355 398.392 201.163 396.997C220.69 394.22 242.212 395.971 261.976 395.929L382.682 395.924L794.975 396.904C809.988 398.102 825.596 397.262 840.666 397.213L922.203 397.155C1111.07 398.343 1299.95 397.81 1488.81 395.556C1505.99 395.314 1576.15 397.321 1587.15 393.277C1582.79 388.92 1524.87 391.137 1513.55 390.293C1525.69 389.327 1581.5 392.535 1587.86 388.081Z"/>
	<path fill="#0D86A0" transform="matrix(0.45166 0 0 0.451172 0 3.05176e-05)" d="M247.569 391.021C263.282 389.616 279.865 390.627 295.66 390.654L387.204 390.835L673.033 391.217L1513.55 390.293C1524.87 391.137 1582.79 388.92 1587.15 393.277C1576.15 397.321 1505.99 395.314 1488.81 395.556C1299.95 397.81 1111.07 398.343 922.203 397.155L840.666 397.213C825.596 397.262 809.988 398.102 794.975 396.904C807.993 394.887 823.018 396.277 836.309 396.189C869.258 395.971 902.209 395.939 935.158 396.093L1231.2 395.907C1296.62 396.01 1362.76 397.904 1428.1 395.228C1430.41 395.133 1435.07 395.569 1436.65 394.032L1437.64 394.091L1438.34 394.603L1439.35 394.267C1407.16 389.771 1372.85 392.122 1340.34 392.145L1176.39 392.056L529.719 391.919L350.693 391.677L286.81 391.869C273.821 391.867 260.486 392.396 247.569 391.021Z"/>
	<path fill="#17E6F8" transform="matrix(0.45166 0 0 0.451172 0 3.05176e-05)" d="M1601.14 618.162L1604.99 617.675L1606.28 618.836L1605.87 621.132C1605.33 624.16 1605.13 624.024 1602.6 625.838C1600.95 626.969 1597.47 626.583 1595.42 626.616C1580.49 626.855 1458.33 628.122 1453.53 626.498C1452.78 626.242 1450.78 623.834 1450.08 623.159C1450.61 621.523 1451.17 621.121 1452.93 620.886C1458.55 620.138 1466.11 621.199 1471.93 621.207C1486.93 621.228 1595.52 622.578 1598.94 620.045L1601.14 618.162Z"/>
	<path fill="#17ADC6" transform="matrix(0.45166 0 0 0.451172 0 3.05176e-05)" d="M1600.39 634.836C1550.72 634.401 1500.61 634.051 1450.98 635.56C1438.97 635.925 1425.55 634.354 1413.79 636.062C1413.64 636.084 1413.5 636.11 1413.35 636.134L1413.19 634.998C1412.02 635.203 1412.55 635.206 1411.61 635.094C1414.35 634.025 1458.17 630.803 1463.86 630.586C1501.34 629.158 1539.27 630.638 1576.8 630.543C1582.97 630.527 1589.26 630.594 1595.41 630.152C1597.64 629.991 1600.6 628.446 1602.61 629.162L1603.33 632.521L1600.39 634.836Z"/>
	<path fill="#17ADC6" transform="matrix(0.45166 0 0 0.451172 0 3.05176e-05)" d="M474.921 393.533C480.167 392.973 488.972 391.132 493.237 394.506C488.912 394.654 478.273 395.973 474.921 393.533Z"/>
	<path fill="#FDF505" transform="matrix(0.45166 0 0 0.451172 0 3.05176e-05)" d="M1732.82 637.496C1735.12 637.284 1735.69 637.042 1737.78 638.168C1741.27 647.127 1738.86 666.261 1737.03 675.757C1740.23 676.454 1743.64 677.191 1746.43 678.983C1750.99 681.902 1754.37 686.866 1755.46 692.163C1756.42 696.775 1755.76 701.698 1753.06 705.623C1749.63 710.608 1744.96 712.651 1739.21 713.701C1735.64 714.198 1732.22 714.154 1728.81 712.809C1723.91 710.877 1719.73 706.638 1717.77 701.768C1715.9 697.097 1716.03 691.86 1718.14 687.29C1720.93 681.135 1726.37 678.444 1732.4 676.085C1734.6 664.612 1733.65 649.202 1732.82 637.496ZM1740.54 707.918C1747.57 705.489 1751.33 697.854 1748.97 690.805C1746.6 683.756 1739.01 679.924 1731.93 682.216C1724.77 684.539 1720.87 692.266 1723.26 699.412C1725.65 706.559 1733.42 710.38 1740.54 707.918Z"/>
	<path fill="#FDF505" transform="matrix(0.45166 0 0 0.451172 0 3.05176e-05)" d="M1903.54 506.914C1903.65 506.792 1903.76 506.674 1903.86 506.548C1911.23 497.741 1906.48 489.186 1923.51 487.501C1927.66 487.091 1931.63 488.218 1934.79 490.975C1938.95 494.599 1941.29 500.371 1941.57 505.808C1941.86 511.319 1940.18 517.105 1936.44 521.248C1933.64 524.351 1930.11 526.096 1925.91 526.213C1921.52 526.334 1914.41 524.474 1911.22 521.369C1908.85 519.068 1907.19 513.867 1905.08 512.235C1891.27 512.307 1877.47 512.257 1863.66 512.082C1863.97 510.178 1863.46 508.754 1862.91 506.934L1903.54 506.914ZM1926.44 518.846C1930.72 517.505 1933.94 513.94 1934.83 509.541C1935.72 505.141 1934.15 500.605 1930.73 497.7C1927.31 494.795 1922.58 493.982 1918.38 495.578C1912.16 497.946 1908.94 504.831 1911.12 511.122C1913.3 517.414 1920.08 520.835 1926.44 518.846Z"/>
</svg>
